# xmcd CD database file
#
# Track frame offsets:
#	150
#	44085
#	70915
#	97270
#	136342
#	139045
#	161935
#	215925
#
# Disc length: 3293 seconds
#
# Revision: 0
# Processed by: cddbd v1.5.1PL0 Copyright (c) Steve Scherf et al.
# Submitted via: CDex 1.51
#
DISCID=870cdb08
DTITLE=Wynton Kelly and Cecil Payne - Live
DYEAR=1900
DGENRE=Jazz
TTITLE0=Cecil's back home
TTITLE1=Outta my head for you
TTITLE2=Confirmation
TTITLE3=Kelly's rhythm
TTITLE4=Sounds of the soul
TTITLE5=52nd street theme
TTITLE6=Keys of Kelly
TTITLE7=Layin' Down Cecil
EXTD=
EXTT0=
EXTT1=
EXTT2=
EXTT3=
EXTT4=
EXTT5=
EXTT6=
EXTT7=
PLAYORDER=
